{
    "asset" : {
        "generator" : "Khronos glTF Blender I/O v3.4.50",
        "version" : "2.0"
    },
    "scene" : 0,
    "scenes" : [
        {
            "name" : "Scene",
            "nodes" : [
                2
            ]
        }
    ],
    "nodes" : [
        {
            "mesh" : 0,
            "name" : "hose",
            "translation" : [
                -0.04607772082090378,
                0.026817604899406433,
                0
            ]
        },
        {
            "mesh" : 1,
            "name" : "ram",
            "translation" : [
                -0.04607772082090378,
                0.026817604899406433,
                0
            ]
        },
        {
            "children" : [
                0,
                1
            ],
            "mesh" : 2,
            "name" : "body",
            "scale" : [
                100,
                100,
                100
            ]
        }
    ],
    "materials" : [
        {
            "doubleSided" : true,
            "name" : "ram_mat.001",
            "normalTexture" : {
                "index" : 0
            },
            "occlusionTexture" : {
                "index" : 1
            },
            "pbrMetallicRoughness" : {
                "baseColorTexture" : {
                    "index" : 2
                },
                "metallicRoughnessTexture" : {
                    "index" : 1
                }
            }
        }
    ],
    "meshes" : [
        {
            "name" : "B\u00e9zierCurve.001",
            "primitives" : [
                {
                    "attributes" : {
                        "POSITION" : 0,
                        "TEXCOORD_0" : 1,
                        "NORMAL" : 2
                    },
                    "indices" : 3,
                    "material" : 0
                }
            ]
        },
        {
            "name" : "Cylinder.001",
            "primitives" : [
                {
                    "attributes" : {
                        "POSITION" : 4,
                        "TEXCOORD_0" : 5,
                        "NORMAL" : 6
                    },
                    "indices" : 7,
                    "material" : 0
                }
            ]
        },
        {
            "name" : "Cylinder.004",
            "primitives" : [
                {
                    "attributes" : {
                        "POSITION" : 8,
                        "TEXCOORD_0" : 9,
                        "NORMAL" : 10
                    },
                    "indices" : 11,
                    "material" : 0
                }
            ]
        }
    ],
    "textures" : [
        {
            "sampler" : 0,
            "source" : 0
        },
        {
            "sampler" : 0,
            "source" : 1
        },
        {
            "sampler" : 0,
            "source" : 2
        }
    ],
    "images" : [
        {
            "mimeType" : "image/png",
            "name" : "Ram_norm",
            "uri" : "Ram_norm.png"
        },
        {
            "mimeType" : "image/png",
            "name" : "Ram_ao-Ram_rough-Ram_metal",
            "uri" : "Ram_ao-Ram_rough-Ram_metal.png"
        },
        {
            "mimeType" : "image/png",
            "name" : "Ram_bcolor",
            "uri" : "Ram_bcolor.png"
        }
    ],
    "accessors" : [
        {
            "bufferView" : 0,
            "componentType" : 5126,
            "count" : 1291,
            "max" : [
                0.02654746174812317,
                0.05967482551932335,
                0.016914915293455124
            ],
            "min" : [
                -0.08618135750293732,
                0.03330580145120621,
                -0.009051576256752014
            ],
            "type" : "VEC3"
        },
        {
            "bufferView" : 1,
            "componentType" : 5126,
            "count" : 1291,
            "type" : "VEC2"
        },
        {
            "bufferView" : 2,
            "componentType" : 5126,
            "count" : 1291,
            "type" : "VEC3"
        },
        {
            "bufferView" : 3,
            "componentType" : 5123,
            "count" : 6678,
            "type" : "SCALAR"
        },
        {
            "bufferView" : 4,
            "componentType" : 5126,
            "count" : 549,
            "max" : [
                0.17921902239322662,
                0.022907815873622894,
                0.01972537860274315
            ],
            "min" : [
                0.05348356068134308,
                -0.016543157398700714,
                -0.019725587218999863
            ],
            "type" : "VEC3"
        },
        {
            "bufferView" : 5,
            "componentType" : 5126,
            "count" : 549,
            "type" : "VEC2"
        },
        {
            "bufferView" : 6,
            "componentType" : 5126,
            "count" : 549,
            "type" : "VEC3"
        },
        {
            "bufferView" : 7,
            "componentType" : 5123,
            "count" : 2292,
            "type" : "SCALAR"
        },
        {
            "bufferView" : 8,
            "componentType" : 5126,
            "count" : 1699,
            "max" : [
                0.009133893996477127,
                0.07001673430204391,
                0.030000001192092896
            ],
            "min" : [
                -0.13314129412174225,
                0,
                -0.030000001192092896
            ],
            "type" : "VEC3"
        },
        {
            "bufferView" : 9,
            "componentType" : 5126,
            "count" : 1699,
            "type" : "VEC2"
        },
        {
            "bufferView" : 10,
            "componentType" : 5126,
            "count" : 1699,
            "type" : "VEC3"
        },
        {
            "bufferView" : 11,
            "componentType" : 5123,
            "count" : 6714,
            "type" : "SCALAR"
        }
    ],
    "bufferViews" : [
        {
            "buffer" : 0,
            "byteLength" : 15492,
            "byteOffset" : 0,
            "target" : 34962
        },
        {
            "buffer" : 0,
            "byteLength" : 10328,
            "byteOffset" : 15492,
            "target" : 34962
        },
        {
            "buffer" : 0,
            "byteLength" : 15492,
            "byteOffset" : 25820,
            "target" : 34962
        },
        {
            "buffer" : 0,
            "byteLength" : 13356,
            "byteOffset" : 41312,
            "target" : 34963
        },
        {
            "buffer" : 0,
            "byteLength" : 6588,
            "byteOffset" : 54668,
            "target" : 34962
        },
        {
            "buffer" : 0,
            "byteLength" : 4392,
            "byteOffset" : 61256,
            "target" : 34962
        },
        {
            "buffer" : 0,
            "byteLength" : 6588,
            "byteOffset" : 65648,
            "target" : 34962
        },
        {
            "buffer" : 0,
            "byteLength" : 4584,
            "byteOffset" : 72236,
            "target" : 34963
        },
        {
            "buffer" : 0,
            "byteLength" : 20388,
            "byteOffset" : 76820,
            "target" : 34962
        },
        {
            "buffer" : 0,
            "byteLength" : 13592,
            "byteOffset" : 97208,
            "target" : 34962
        },
        {
            "buffer" : 0,
            "byteLength" : 20388,
            "byteOffset" : 110800,
            "target" : 34962
        },
        {
            "buffer" : 0,
            "byteLength" : 13428,
            "byteOffset" : 131188,
            "target" : 34963
        }
    ],
    "samplers" : [
        {
            "magFilter" : 9729,
            "minFilter" : 9987
        }
    ],
    "buffers" : [
        {
            "byteLength" : 144616,
            "uri" : "RamBaked.bin"
        }
    ]
}
